<?xml version="1.0" encoding="UTF-8" standalone="no"?>
<!-- Created with Inkscape (http://www.inkscape.org/) -->

<svg
   width="16"
   height="16"
   viewBox="0 0 4.2333333 4.2333333"
   version="1.1"
   id="svg1"
   inkscape:version="1.3 (0e150ed6c4, 2023-07-21)"
   sodipodi:docname="favicon.svg"
   inkscape:export-filename="favicon.png"
   inkscape:export-xdpi="1536"
   inkscape:export-ydpi="1536"
   xmlns:inkscape="http://www.inkscape.org/namespaces/inkscape"
   xmlns:sodipodi="http://sodipodi.sourceforge.net/DTD/sodipodi-0.dtd"
   xmlns="http://www.w3.org/2000/svg"
   xmlns:svg="http://www.w3.org/2000/svg"
   xmlns:rdf="http://www.w3.org/1999/02/22-rdf-syntax-ns#"
   xmlns:cc="http://creativecommons.org/ns#">
  <sodipodi:namedview
     id="namedview1"
     pagecolor="#7e7e7e"
     bordercolor="#666666"
     borderopacity="1.0"
     inkscape:showpageshadow="2"
     inkscape:pageopacity="0.0"
     inkscape:pagecheckerboard="0"
     inkscape:deskcolor="#d1d1d1"
     inkscape:document-units="px"
     inkscape:zoom="32"
     inkscape:cx="5.390625"
     inkscape:cy="5.421875"
     inkscape:window-width="1920"
     inkscape:window-height="1002"
     inkscape:window-x="1920"
     inkscape:window-y="1080"
     inkscape:window-maximized="1"
     inkscape:current-layer="layer1" />
  <defs
     id="defs1" />
  <g
     inkscape:label="Layer 1"
     inkscape:groupmode="layer"
     id="layer1">
    <path
       id="path1"
       style="color:#000000;fill:#000000;fill-rule:evenodd;stroke:#ffffff;stroke-width:0.24902;stroke-linecap:round;stroke-linejoin:round;stroke-dasharray:none;stroke-opacity:1;paint-order:stroke markers fill"
       d="M 0.5946414,0.12451163 A 0.20909129,0.20909129 0 0 0 0.40106768,0.25242585 C 0.01357645,1.1610429 0.04167667,2.2545401 0.62139153,3.0947504 0.93227094,3.5453232 1.4146085,3.8905942 1.9462533,4.0368418 2.477898,4.1830894 3.0731569,4.1197534 3.5532075,3.7362675 3.8046411,3.5354109 3.9928052,3.2393188 4.063892,2.9143084 4.1349789,2.589298 4.0749536,2.220706 3.8056316,1.9498442 3.6830896,1.8266017 3.5169557,1.7403246 3.3314244,1.7154156 3.1458932,1.6905065 2.9163548,1.7481121 2.7847488,1.9386577 c -0.053394,0.077297 -0.077394,0.1513631 -0.077819,0.2524241 -1.43e-5,0.00343 4.263e-4,0.00718 4.865e-4,0.0107 a 0.29376524,0.29376524 0 0 0 -9.728e-4,0.012646 0.29376524,0.29376524 0 0 0 0.057878,0.1731463 0.29376524,0.29376524 0 0 0 0.061282,0.061769 c 3.604e-4,2.799e-4 6.109e-4,6.942e-4 9.727e-4,9.727e-4 a 0.29376524,0.29376524 0 0 0 0.030641,0.019455 c 0.02382,0.014551 0.048626,0.027005 0.074414,0.034046 5.793e-4,1.581e-4 0.032385,0.00564 0.039396,0.00632 0.00701,6.779e-4 0.011512,-2.094e-4 0.017996,10e-8 0.012953,4.107e-4 0.026616,0.00208 0.047177,-4.864e-4 0.010289,-0.00128 0.02243,-0.00491 0.037937,-0.00924 0.00775,-0.00216 0.017246,-0.00465 0.027237,-0.00875 0.01,-0.00412 0.033714,-0.014566 0.034532,-0.015077 1.339e-4,-8.39e-5 0.00497,-0.00418 0.00681,-0.00584 A 0.29376524,0.29376524 0 0 0 3.2939742,2.2144274 0.29376524,0.29376524 0 0 0 3.2818151,2.1312588 c 0.079078,0.011889 0.1771914,0.064563 0.225674,0.1133233 C 3.668877,2.4068924 3.7046599,2.6042797 3.6563172,2.8253035 3.6079742,3.0463272 3.4602939,3.2740426 3.289597,3.4104021 2.9218316,3.7041666 2.4881339,3.7503424 2.0586039,3.6321852 1.6290737,3.5140278 1.2193678,3.2226672 0.96768438,2.85789 0.48156322,2.15333 0.44951021,1.2035573 0.78626977,0.41389949 A 0.20909129,0.20909129 0 0 0 0.67440546,0.14056172 0.20909129,0.20909129 0 0 0 0.5946414,0.12451163 Z" />
  </g>
  <metadata
     id="metadata1">
    <rdf:RDF>
      <cc:Work
         rdf:about="">
        <cc:license
           rdf:resource="http://creativecommons.org/licenses/by-nc/4.0/" />
      </cc:Work>
      <cc:License
         rdf:about="http://creativecommons.org/licenses/by-nc/4.0/">
        <cc:permits
           rdf:resource="http://creativecommons.org/ns#Reproduction" />
        <cc:permits
           rdf:resource="http://creativecommons.org/ns#Distribution" />
        <cc:requires
           rdf:resource="http://creativecommons.org/ns#Notice" />
        <cc:requires
           rdf:resource="http://creativecommons.org/ns#Attribution" />
        <cc:prohibits
           rdf:resource="http://creativecommons.org/ns#CommercialUse" />
        <cc:permits
           rdf:resource="http://creativecommons.org/ns#DerivativeWorks" />
      </cc:License>
    </rdf:RDF>
  </metadata>
</svg>
